<svg height="488pt" viewBox="0 -32 488 488" width="488pt" xmlns="http://www.w3.org/2000/svg"><path d="m53.996094 345.164062c-6.347656 0-11.496094-5.148437-11.496094-11.5v-29.003906c0-6.347656 5.148438-11.496094 11.496094-11.496094h.277344v-64.449218c0-10.847656 8.789062-19.636719 19.636718-19.636719h17.75-.121094l5.191407-13.847656c-3.566407 1.265625-7.015625 3.046875-10.226563 5.390625-.191406-.273438-.351562-.5625-.550781-.839844-11.761719-16.03125-34.292969-19.492188-50.320313-7.730469-16.03125 11.757813-19.496093 34.289063-7.734374 50.316407.1875.253906.394531.476562.585937.722656-.078125.058594-.160156.101562-.238281.160156-17.792969 13.050781-21.648438 38.039062-8.632813 55.847656-.277343.191406-.566406.351563-.839843.554688-16.035157 11.757812-19.496094 34.289062-7.734376 50.320312 11.757813 16.03125 34.289063 19.492188 50.320313 7.730469.273437-.199219.515625-.429687.78125-.636719.035156.046875.0625.101563.097656.148438 9.148438 12.46875 24.15625 18.066406 38.449219 15.835937v-27.886719zm0 0" fill="#a4c9ff"/><path d="m94.421875 377.539062c-12.652344 0-24.675781-5.414062-33.050781-15.007812-17.582032 11.085938-41.082032 6.820312-53.5625-10.191406-12.488282-17.019532-9.492188-40.730469 6.382812-54.167969-10.964844-18.21875-7.238281-41.902344 8.828125-55.863281-5.109375-8.132813-7.105469-17.71875-5.632812-27.308594 1.625-10.558594 7.261719-19.855469 15.878906-26.175781 17.023437-12.484375 40.730469-9.488281 54.171875 6.386719 2.507812-1.503907 5.171875-2.761719 7.957031-3.75 1.464844-.519532 3.101563-.144532 4.191407.964843 1.089843 1.109375 1.4375 2.75.890624 4.210938l-4.839843 12.914062c-.234375 1.984375-1.925781 3.527344-3.972657 3.527344h-17.75c-8.625 0-15.640624 7.015625-15.640624 15.636719v64.449218c0 2.207032-1.792969 4-4 4h-.273438c-4.132812 0-7.496094 3.363282-7.496094 7.496094v29.003906c0 4.136719 3.363282 7.5 7.496094 7.5h46.6875c2.207031 0 4 1.789063 4 4v27.886719c0 1.96875-1.433594 3.648438-3.382812 3.953125-2.300782.359375-4.601563.535156-6.882813.535156zm-28.902344-22.609374c7.304688 9.90625 19.007813 15.292968 31.167969 14.542968v-20.304687h-42.691406c-8.542969 0-15.496094-6.953125-15.496094-15.5v-29.003907c0-7.261718 5.019531-13.371093 11.773438-15.042968v-60.902344c0-13.035156 10.601562-23.636719 23.636718-23.636719h14.859375l.59375-1.582031c-.167969.117188-.335937.234375-.5.355469-.871093.636719-1.957031.894531-3.023437.714843-1.0625-.179687-2.011719-.78125-2.625-1.667968-.113282-.167969-.226563-.335938-.332032-.507813l-.160156-.246093c-10.433594-14.226563-30.503906-17.308594-44.726562-6.871094-6.890625 5.054687-11.402344 12.492187-12.703125 20.941406-1.296875 8.449219.769531 16.894531 5.828125 23.789062l.152344.179688c.125.152344.253906.304688.375.464844.660156.855468.949218 1.945312.792968 3.011718-.152344 1.070313-.734375 2.03125-1.613281 2.667969-.074219.054688-.269531.183594-.347656.230469-15.847657 11.628906-19.332031 34.179688-7.640625 50.175781.632812.871094.890625 1.957031.714844 3.019531-.179688 1.0625-.777344 2.007813-1.660157 2.625-.171875.121094-.34375.230469-.519531.339844l-.234375.152344c-14.234375 10.441406-17.316406 30.507812-6.878906 44.730469 10.4375 14.230469 30.507812 17.3125 44.730469 6.878906l.21875-.179687c.15625-.136719.316406-.269532.484374-.398438.851563-.660156 1.933594-.949219 3-.796875 1.070313.152344 2.03125.726563 2.667969 1.59375.039063.054687.101563.144531.15625.226563zm0 0" fill="#3762cc"/><path d="m446.097656 193.425781c-.339844.015625-.667968.074219-1.007812.101563 0-.058594.003906-.117188 0-.175782-.871094-17.464843-12.835938-31.714843-28.722656-36.367187 7.785156-16.53125 3.4375-36.804687-11.558594-48.519531.214844-.261719.449218-.496094.65625-.761719 12.210937-15.691406 9.390625-38.308594-6.304688-50.519531-15.6875-12.210938-38.308594-9.390625-50.519531 6.300781-.207031.269531-.378906.554687-.578125.828125-.046875-.035156-.085938-.078125-.132812-.117188-17.4375-13.566406-42.566407-10.429687-56.136719 7.003907-3.769531 4.84375-6.203125 10.292969-7.445313 15.910156h38.195313c16.949219 0 32.117187 10.511719 38.070312 26.382813l32.636719 87.035156 3.738281 8.550781h17.097657c10.847656 0 19.636718 8.792969 19.636718 19.640625v64.785156c1.320313.320313 2.542969.878906 3.640625 1.609375 7.453125-7.667969 11.863281-18.257812 11.3125-29.777343.335938-.007813.664063.015624 1.003907 0 19.855468-.992188 35.148437-17.890626 34.160156-37.75-.984375-19.855469-17.886719-35.152344-37.742188-34.160157zm0 0" fill="#a4c9ff"/><path d="m437.367188 299.113281c-.769532 0-1.542969-.21875-2.21875-.667969-.75-.5-1.542969-.855468-2.367188-1.054687-1.792969-.4375-3.050781-2.042969-3.050781-3.886719v-64.785156c0-8.625-7.015625-15.640625-15.640625-15.640625h-17.097656c-1.589844 0-3.027344-.941406-3.664063-2.398437l-3.738281-8.546876c-.03125-.066406-.058594-.132812-.082032-.199218l-32.636718-87.039063c-5.335938-14.226562-19.128906-23.785156-34.324219-23.785156h-38.195313c-1.214843 0-2.363281-.550781-3.121093-1.496094-.757813-.945312-1.046875-2.183593-.785157-3.367187 1.425782-6.464844 4.183594-12.351563 8.191407-17.503906 14.125-18.144532 39.738281-22.195313 58.671875-9.894532 13.890625-15.464844 37.660156-17.777344 54.3125-4.824218 8.429687 6.5625 13.804687 16.015624 15.125 26.621093 1.207031 9.664063-1.085938 19.226563-6.472656 27.234375 12.835937 11.96875 17.273437 30.222656 11.398437 46.722656 14.570313 5.90625 24.933594 19.203126 27.0625 34.785157 9.636719.191406 18.777344 3.804687 25.992187 10.335937 7.921876 7.167969 12.578126 16.996094 13.113282 27.667969.53125 10.671875-3.125 20.910156-10.292969 28.832031-6.535156 7.222656-15.28125 11.730469-24.859375 12.875-.429688 10.796875-4.773438 20.910156-12.453125 28.808594-.777344.792969-1.820313 1.207031-2.867187 1.207031zm-37.757813-94.035156h14.480469c13.035156 0 23.640625 10.601563 23.640625 23.636719v59.8125c4.910156-6.632813 7.355469-14.636719 6.953125-23-.050782-1.078125.335937-2.128906 1.070312-2.917969s1.753906-1.25 2.832032-1.273437c.207031-.003907.414062-.003907.617187 0l.285156.003906c8.535157-.425782 16.394531-4.152344 22.128907-10.488282 5.738281-6.339843 8.660156-14.53125 8.234374-23.066406-.425781-8.535156-4.148437-16.394531-10.488281-22.132812-6.335937-5.734375-14.523437-8.664063-23.066406-8.234375 0 0 0 0-.003906 0-.09375.003906-.1875.019531-.28125.03125-.203125.027343-.402344.046875-.605469.066406-1.078125.085937-2.144531-.273437-2.957031-.988281-.8125-.710938-1.300781-1.722656-1.351563-2.804688 0-.066406-.003906-.175781-.003906-.269531-.800781-15.226563-11.175781-28.335937-25.847656-32.628906-1.121094-.328125-2.042969-1.128907-2.523438-2.195313-.480468-1.066406-.46875-2.289062.03125-3.347656 7.203125-15.296875 2.925782-33.253906-10.40625-43.667969-.847656-.664062-1.394531-1.636719-1.511718-2.710937-.121094-1.070313.199218-2.144532.882812-2.976563.132812-.160156.265625-.316406.40625-.46875l.183594-.210937c5.25-6.75 7.5625-15.132813 6.503906-23.617188-1.058594-8.480468-5.355469-16.042968-12.101562-21.292968-13.921876-10.835938-34.074219-8.324219-44.910157 5.601562-.054687.074219-.109375.15625-.164062.238281-.113281.167969-.226563.332031-.34375.496094-.640625.875-1.613281 1.457031-2.6875 1.597656-1.078125.152344-2.167969-.152343-3.019531-.828125-.046876-.035156-.121094-.09375-.183594-.152344-15.675782-12.121093-38.28125-9.277343-50.449219 6.359376-2.242187 2.878906-4.003906 6.046874-5.265625 9.457031h32.859375c18.511719 0 35.316406 11.644531 41.816406 28.976562l32.601563 86.933594zm0 0" fill="#3762cc"/><path d="m482.710938 139.457031c0 11.132813-9.023438 20.160157-20.160157 20.160157-11.132812 0-20.160156-9.027344-20.160156-20.160157 0-11.132812 9.027344-20.160156 20.160156-20.160156 11.136719 0 20.160157 9.027344 20.160157 20.160156zm0 0" fill="#a4c9ff"/><path d="m462.527344 163.605469c-5.1875 0-10.410156-1.65625-14.8125-5.082031-5.09375-3.964844-8.335938-9.671876-9.136719-16.078126-.796875-6.402343.945313-12.734374 4.90625-17.828124 3.964844-5.09375 9.671875-8.335938 16.078125-9.132813 6.40625-.800781 12.738281.941406 17.832031 4.90625 10.511719 8.183594 12.410157 23.390625 4.226563 33.90625-4.757813 6.109375-11.890625 9.308594-19.09375 9.308594zm.058594-40.308594c-.675782 0-1.355469.039063-2.035157.125-4.28125.53125-8.101562 2.703125-10.75 6.109375-5.472656 7.03125-4.203125 17.207031 2.828125 22.679688 7.03125 5.46875 17.207032 4.203124 22.675782-2.828126 5.472656-7.035156 4.207031-17.207031-2.828126-22.679687-2.863281-2.226563-6.316406-3.40625-9.890624-3.40625zm0 0" fill="#3762cc"/><path d="m396.460938 209.078125h-304.921876l35.847657-95.589844c5.949219-15.867187 21.121093-26.378906 38.066406-26.378906h157.09375c16.949219 0 32.117187 10.511719 38.070313 26.378906zm0 0" fill="#4671c6"/><path d="m122.898438 183.34375 23.519531-62.714844c2.976562-7.9375 10.558593-13.191406 19.035156-13.191406h157.09375c8.472656 0 16.058594 5.253906 19.035156 13.191406l23.519531 62.714844c.976563 2.617188-.953124 5.40625-3.746093 5.40625h-234.710938c-2.789062 0-4.722656-2.789062-3.746093-5.40625zm0 0" fill="#e0ebfc"/><path d="m37.789062 46.15625c-6.746093 14.738281-17.929687 27.015625-31.855468 35.128906-2.496094 1.457032-2.496094 4.988282 0 6.445313 13.925781 8.109375 25.109375 20.390625 31.855468 35.128906 1.308594 2.863281 5.390626 2.863281 6.699219 0 6.746094-14.738281 17.933594-27.019531 31.855469-35.128906 2.5-1.457031 2.5-4.988281 0-6.445313-13.921875-8.113281-25.109375-20.390625-31.855469-35.128906-1.308593-2.859375-5.390625-2.859375-6.699219 0zm0 0" fill="#ffea92"/><path d="m88.714844 1.503906c-4.722656 10.316406-12.554688 18.910156-22.300782 24.589844-1.746093 1.019531-1.746093 3.492188 0 4.511719 9.746094 5.675781 17.578126 14.273437 22.300782 24.589843.917968 2.003907 3.773437 2.003907 4.6875 0 4.722656-10.316406 12.550781-18.910156 22.300781-24.589843 1.746094-1.019531 1.746094-3.492188 0-4.511719-9.75-5.679688-17.578125-14.273438-22.300781-24.589844-.914063-2.003906-3.773438-2.003906-4.6875 0zm0 0" fill="#ffea92"/><path d="m479.253906 420.617188h-470.507812c-2.621094 0-4.746094-2.125-4.746094-4.75v-18.503907c0-2.621093 2.125-4.746093 4.746094-4.746093h470.507812c2.621094 0 4.746094 2.125 4.746094 4.746093v18.503907c0 2.625-2.125 4.75-4.746094 4.75zm0 0" fill="#e0ebfc"/><path d="m479.253906 424.617188h-470.507812c-4.820313 0-8.746094-3.925782-8.746094-8.75v-18.503907c0-4.824219 3.925781-8.746093 8.746094-8.746093h470.507812c4.820313 0 8.746094 3.921874 8.746094 8.746093v18.503907c0 4.824218-3.925781 8.75-8.746094 8.75zm-470.507812-28c-.410156 0-.746094.335937-.746094.746093v18.503907c0 .414062.335938.75.746094.75h470.507812c.410156 0 .746094-.335938.746094-.75v-18.503907c0-.410156-.335938-.746093-.746094-.746093zm0 0" fill="#3762cc"/><path d="m271.105469 148.09375h-54.210938c-3.742187 0-6.773437-3.035156-6.773437-6.777344v-13.550781c0-3.742187 3.03125-6.777344 6.773437-6.777344h54.210938c3.742187 0 6.773437 3.035157 6.773437 6.777344v13.550781c0 3.742188-3.03125 6.777344-6.773437 6.777344zm0 0" fill="#a4c9ff"/><path d="m244 134.539062c-3.742188 0-6.777344-3.03125-6.777344-6.773437v-20.328125h13.554688v20.328125c0 3.742187-3.035156 6.773437-6.777344 6.773437zm0 0" fill="#4671c6"/><path d="m396.460938 213.078125h-304.921876c-1.3125 0-2.539062-.644531-3.285156-1.722656-.75-1.078125-.917968-2.453125-.460937-3.683594l35.847656-95.585937c6.5-17.332032 23.300781-28.976563 41.8125-28.976563h157.09375c18.511719 0 35.3125 11.644531 41.8125 28.976563l35.84375 95.585937c.460937 1.226563.289063 2.601563-.457031 3.679687-.746094 1.082032-1.972656 1.726563-3.285156 1.726563zm-299.148438-8h293.375l-33.816406-90.183594c-5.335938-14.226562-19.128906-23.785156-34.324219-23.785156h-157.09375c-15.195313 0-28.988281 9.558594-34.324219 23.785156zm0 0" fill="#3762cc"/><path d="m431.003906 345.164062h-377.007812c-6.347656 0-11.496094-5.148437-11.496094-11.5v-29.003906c0-6.347656 5.148438-11.496094 11.496094-11.496094h377.007812c6.347656 0 11.496094 5.148438 11.496094 11.496094v29.003906c0 6.351563-5.148438 11.5-11.496094 11.5zm0 0" fill="#6bdddd"/><path d="m431.003906 349.164062h-377.007812c-8.542969 0-15.496094-6.953124-15.496094-15.5v-29.003906c0-8.546875 6.953125-15.496094 15.496094-15.496094h377.007812c8.542969 0 15.496094 6.949219 15.496094 15.496094v29.003906c0 8.546876-6.953125 15.5-15.496094 15.5zm-377.007812-52c-4.132813 0-7.496094 3.363282-7.496094 7.496094v29.003906c0 4.136719 3.363281 7.5 7.496094 7.5h377.007812c4.132813 0 7.496094-3.363281 7.496094-7.5v-29.003906c0-4.132812-3.363281-7.496094-7.496094-7.496094zm0 0" fill="#3762cc"/><path d="m100.6875 345.164062v35.953126c0 6.351562 5.148438 11.5 11.5 11.5h33c6.351562 0 11.5-5.148438 11.5-11.5v-35.953126zm0 0" fill="#f9a7a7"/><path d="m145.1875 396.617188h-33c-8.546875 0-15.5-6.953126-15.5-15.5v-35.957032c0-2.207031 1.789062-4 4-4h56c2.207031 0 4 1.792969 4 4v35.957032c0 8.546874-6.953125 15.5-15.5 15.5zm-40.5-47.453126v31.953126c0 4.136718 3.363281 7.5 7.5 7.5h33c4.132812 0 7.5-3.363282 7.5-7.5v-31.953126zm0 0" fill="#3762cc"/><path d="m334.457031 345.164062v35.953126c0 6.351562 5.148438 11.5 11.5 11.5h33.003907c6.347656 0 11.5-5.148438 11.5-11.5v-35.953126zm0 0" fill="#f9a7a7"/><path d="m378.957031 396.617188h-33c-8.546875 0-15.5-6.953126-15.5-15.5v-35.957032c0-2.207031 1.789063-4 4-4h56c2.207031 0 4 1.792969 4 4v35.957032c0 8.546874-6.953125 15.5-15.5 15.5zm-40.5-47.453126v31.953126c0 4.136718 3.363281 7.5 7.5 7.5h33.003907c4.132812 0 7.5-3.363282 7.5-7.5v-31.953126zm0 0" fill="#3762cc"/><path d="m431.003906 293.164062c.9375 0 1.847656.125 2.722656.335938v-64.785156c0-10.847656-8.789062-19.640625-19.636718-19.640625h-340.179688c-10.847656 0-19.636718 8.792969-19.636718 19.640625v64.445312h376.730468zm0 0" fill="#4671c6"/><path d="m433.726562 297.503906c-.316406 0-.628906-.039062-.941406-.113281-.628906-.152344-1.210937-.226563-1.78125-.226563h-376.730468c-2.210938 0-4-1.792968-4-4v-64.449218c0-13.035156 10.601562-23.636719 23.636718-23.636719h340.179688c13.035156 0 23.640625 10.601563 23.640625 23.636719v64.789062c0 1.226563-.566407 2.386719-1.527344 3.144532-.714844.558593-1.585937.855468-2.476563.855468zm-375.453124-8.339844h371.457031v-60.449218c0-8.625-7.015625-15.636719-15.640625-15.636719h-340.179688c-8.621094 0-15.636718 7.015625-15.636718 15.636719zm0 0" fill="#3762cc"/><path d="m127.113281 284.226562c-18.253906 0-33.101562-14.851562-33.101562-33.105468s14.847656-33.105469 33.101562-33.105469c18.253907 0 33.105469 14.851563 33.105469 33.105469s-14.851562 33.105468-33.105469 33.105468zm0 0" fill="#f9a7a7"/><path d="m127.113281 274.226562c-12.738281 0-23.101562-10.367187-23.101562-23.105468 0-12.738282 10.363281-23.105469 23.101562-23.105469 12.742188 0 23.105469 10.367187 23.105469 23.105469 0 12.738281-10.363281 23.105468-23.105469 23.105468zm0 0" fill="#ffea92"/><path d="m360.886719 284.226562c-18.253907 0-33.105469-14.851562-33.105469-33.105468s14.851562-33.105469 33.105469-33.105469c18.253906 0 33.101562 14.851563 33.101562 33.105469s-14.847656 33.105468-33.101562 33.105468zm0 0" fill="#f9a7a7"/><path d="m360.886719 274.226562c-12.742188 0-23.105469-10.367187-23.105469-23.105468 0-12.738282 10.363281-23.105469 23.105469-23.105469 12.738281 0 23.101562 10.367187 23.101562 23.105469 0 12.738281-10.363281 23.105468-23.101562 23.105468zm0 0" fill="#ffea92"/><path d="m307.148438 268.0625h-126.296876c-4.417968 0-8-3.582031-8-8v-17.882812c0-4.417969 3.582032-8 8-8h126.296876c4.417968 0 8 3.582031 8 8v17.882812c0 4.417969-3.582032 8-8 8zm0 0" fill="#f9cfcf"/><path d="m102.710938 131.457031c0 11.132813-9.023438 20.160157-20.160157 20.160157-11.132812 0-20.160156-9.027344-20.160156-20.160157 0-11.132812 9.027344-20.160156 20.160156-20.160156 11.136719 0 20.160157 9.027344 20.160157 20.160156zm0 0" fill="#a4c9ff"/><path d="m82.527344 155.605469c-5.1875 0-10.410156-1.65625-14.8125-5.082031-5.09375-3.964844-8.335938-9.671876-9.136719-16.078126-.796875-6.402343.945313-12.734374 4.90625-17.828124 3.964844-5.09375 9.671875-8.335938 16.078125-9.132813 6.40625-.800781 12.738281.941406 17.832031 4.90625 10.511719 8.183594 12.410157 23.390625 4.226563 33.90625-4.757813 6.109375-11.890625 9.308594-19.09375 9.308594zm.058594-40.308594c-.675782 0-1.355469.039063-2.035157.125-4.28125.53125-8.101562 2.703125-10.75 6.109375-5.472656 7.03125-4.203125 17.207031 2.828125 22.679688 7.03125 5.46875 17.207032 4.203124 22.675782-2.828126 5.472656-7.035156 4.207031-17.207031-2.828126-22.679687-2.863281-2.226563-6.316406-3.40625-9.890624-3.40625zm0 0" fill="#3762cc"/></svg>